<?xml version="1.0" encoding="utf-8"?>
<!-- Generator: Adobe Illustrator 24.3.0, SVG Export Plug-In . SVG Version: 6.00 Build 0)  -->
<svg version="1.1" id="Layer_1" xmlns="http://www.w3.org/2000/svg" xmlns:xlink="http://www.w3.org/1999/xlink" x="0px" y="0px"
	 viewBox="0 0 565.2 788.3" style="enable-background:new 0 0 565.2 788.3;" xml:space="preserve">
<style type="text/css">
	.st0{fill:none;}
	.st1{opacity:0.2;}
	.st2{opacity:0.2;enable-background:new    ;}
	.st3{font-family:'Calibri';}
	.st4{font-size:58.5821px;}
</style>
<path class="st0" d="M630.2,600H-31.2V0h661.4V600z M365,98.5c0,19.5-0.2,38.2,0.1,56.8c0.1,6.7-2,8.9-8.7,8.9
	c-89-0.2-178.1-0.2-267.1,0c-7,0-8.6-2.7-8.5-9.1c0.3-23,0.1-46,0.1-69c0-10.1,0.3-10.4,10.3-10.4c31.8,0.2,63.5,0.6,95.3,0.6
	c34.2,0,68.5-0.5,102.7-0.6c61.9-0.1,123.7,0,185.6-0.1c6.4,0,8.5,2.1,8.4,8.4c-0.1,66-0.1,132,0,197.9c0,6.3-2.5,8-8.2,7.7
	c-8-0.3-16.1-0.1-24.4-0.1v27.9c17.2,0,34.2-0.3,51.2,0.1c7.2,0.2,9.5-1.7,9.5-9.3c-0.3-82.9-0.2-165.7-0.2-248.6c0-11,0-11-10.7-11
	c-142.6,0-285.2,0-427.9,0.1c-5.9,0-11.8,1.3-18,2.1v7.9c0,40.7,0.2,81.3-0.2,122c-0.1,7.4,1.9,9.4,9.3,9.4
	c129.3-0.2,258.7-0.2,388.1,0h8.5V98.7H434v67.8c0,4-0.7,7.9-5.8,6c-1.6-0.6-2.9-4.4-3-6.8c-0.2-19.7-0.1-39.4-0.1-59.1v-8h-25.8
	c-0.1,2.6-0.4,4.8-0.4,7.1c0,20.2,0.1,40.4-0.2,60.6c0,2.3-2.6,4.5-4,6.7c-1.3-2.3-3.6-4.6-3.7-6.9c-0.5-8.2-0.2-16.4-0.2-24.5v-43
	L365,98.5z M513,380.9H114.9c-8.9,0-17.9-0.3-26.8,0.1c-5.9,0.3-7.5-2-7.4-7.6c0.3-15.1,0.5-30.2-0.1-45.3
	c-0.3-7.6,1.9-10.1,9.8-10.1c95.4,0.3,190.9,0.3,286.3,0.2h6.9v-86.1H222.9v26.2h7.9c41.1,0,82.2,0.1,123.2-0.1
	c6.6,0,9.4,1.8,8.7,8.7c-0.5,5.1-0.1,10.2-0.1,15.3c0,10.4,0,10.4-10.6,10.3c-97.2-0.3-194.4-0.6-291.6-1c-6.7,0-8.6,1.8-8.5,8.6
	c0.4,34,0.2,68,0.2,102c0,2.4,0.2,4.8,0.3,7.6H472c1.5,0,3.1,0.1,4.6,0c4.7-0.5,6.2,1.9,6.2,6.3c-0.1,36.1-0.1,72.1,0,108.2
	c0,5.1-2.2,6.5-7.2,5.9c-6.3-0.7-12.7-0.8-19.1-0.3c-1.9,0.2-5.1,2.8-5.3,4.5c-0.6,7.8-0.2,15.6-0.2,23.5h62V380.9z M51.6,551.6
	h316.5c0.3-0.8,0.5-1.7,0.7-2.6c0.4-25.5,0.6-51.1,1-76.6c0.1-5-3-5-6.6-5c-13.3,0.1-26.5,0-39.8,0h-51.9v48.8
	c0,11.1,0,11.2-10.9,11.2H57.8c-2,0-3.9,0.2-6.2,0.4V551.6z"/>
<path class="st1" d="M365,98.5h25.9v43c0,8.2-0.3,16.4,0.2,24.5c0.1,2.4,2.4,4.6,3.7,6.9c1.4-2.2,3.9-4.5,4-6.7
	c0.3-20.2,0.2-40.4,0.2-60.6c0-2.2,0.2-4.5,0.4-7.1h25.9v8c0,19.7-0.1,39.4,0.1,59.1c0,2.4,1.3,6.2,3,6.8c5.1,1.8,5.8-2,5.8-6
	c-0.1-19.7-0.1-39.4,0-59.1v-8.7h26.2v91.7h-8.5c-129.3-0.1-258.7-0.1-388.1,0c-7.4,0-9.4-2.1-9.3-9.4c0.3-40.7,0.2-81.3,0.2-122v-8
	c6.2-0.7,12.1-2,18-2.1c142.6-0.1,285.2-0.1,427.9-0.1c10.7,0,10.7,0,10.7,11c0,82.9-0.1,165.7,0.2,248.6c0,7.5-2.2,9.5-9.5,9.3
	c-17-0.5-34-0.1-51.2-0.1v-27.9c8.3,0,16.3-0.2,24.4,0.1c5.7,0.2,8.3-1.4,8.2-7.7c-0.2-66-0.2-132,0-197.9c0-6.3-2.1-8.5-8.4-8.4
	c-61.9,0.2-123.7,0-185.6,0.1c-34.2,0-68.5,0.6-102.7,0.6c-31.8,0-63.5-0.4-95.3-0.6C81.3,75.6,81,76,81,86.1c0,23,0.2,46-0.1,69
	c-0.1,6.4,1.5,9.1,8.5,9.1c89-0.2,178.1-0.2,267.1,0c6.8,0,8.9-2.2,8.7-8.9C364.8,136.6,365,118,365,98.5z"/>
<path class="st1" d="M513,380.9v177h-62c0-7.8-0.3-15.7,0.2-23.5c0.1-1.7,3.3-4.3,5.3-4.5c6.4-0.5,12.7-0.4,19.1,0.3
	c5,0.5,7.3-0.8,7.2-5.9c0-36.1,0-72.1,0-108.2c0-4.5-1.5-6.8-6.2-6.3c-1.5,0.1-3.1,0-4.6,0H52.4c-0.1-2.8-0.3-5.2-0.3-7.6
	c0-34,0.2-68-0.2-102c-0.1-6.8,1.8-8.6,8.5-8.6c97.2,0.5,194.4,0.8,291.6,1c10.6,0,10.6,0,10.6-10.3c0-5.1-0.4-10.3,0.1-15.3
	c0.7-6.9-2-8.7-8.7-8.7c-41.1,0.3-82.2,0.1-123.2,0.1h-7.9v-26.3h160.9v86.1h-6.9c-95.4,0-190.9-0.1-286.3-0.2
	c-7.9,0-10.1,2.4-9.8,10.1c0.6,15.1,0.3,30.2,0.1,45.3c-0.1,5.5,1.5,7.9,7.4,7.6c8.9-0.4,17.9-0.1,26.8-0.1L513,380.9z"/>
<path class="st1" d="M51.6,551.6v-23.9c2.3-0.1,4.2-0.4,6.2-0.4h202.8c10.9,0,10.9,0,10.9-11.2v-48.8h91.7c3.6,0,6.7,0,6.6,5
	c-0.4,25.5-0.7,51.1-1,76.6c-0.1,0.9-0.4,1.7-0.7,2.6L51.6,551.6z M320.1,521.2h4.6c26.4-0.6,21.7,5.1,22.2-23.4
	c0.1-5.1-2.1-7.5-7.3-7.4c-8.1,0.2-16.3-0.1-24.4,0.1c-22.3,0.5-21.4-5.3-21.4,22.6c0,5.7,2,8.5,8.1,8.2S314,521.2,320.1,521.2z"/>
<text transform="matrix(1 0 0 1 51.3389 742.0215)" class="st2 st3 st4">EGYPTIAN RAILWAY</text>
<g class="st1">
	<path d="M85.6,650.1c0,0.4-0.2,0.8-0.5,1.1c-0.3,0.3-0.7,0.5-1.2,0.7c-0.5,0.2-1,0.3-1.7,0.4c-0.6,0.1-1.2,0.1-1.8,0.1H79
		c-0.8,6.4-2.7,11.6-5.7,15.5c-2.9,3.9-6.5,5.8-10.7,5.8c-2,0-5.4-0.8-10.1-2.3l0.8-0.8c1.2,0.2,2.2,0.3,2.9,0.3
		c4.4,0,8.5-1.6,12.5-4.7c3.9-3.1,6.6-7.1,8-11.9l-3.6-5.8l2.5-5c2,2.2,3.6,3.2,4.8,3.2h2c0.8,0,1.6,0.2,2.3,0.5
		c0.7,0.3,1,0.8,1,1.5V650.1z"/>
	<path d="M143,649.7c0,0.4-0.1,0.8-0.4,1.1c-0.3,0.3-0.7,0.6-1.1,0.8c-0.5,0.2-1,0.4-1.6,0.6c-0.6,0.1-1.3,0.2-2,0.2h-34.4
		c-0.4,1-0.9,2-1.2,3.1c-0.4,1.1-0.8,2.3-1.2,3.7h-0.2c-0.2-0.2-0.3-0.5-0.4-0.8c-0.1-0.3-0.2-0.7-0.3-1.1c0.2-0.8,0.4-1.6,0.6-2.4
		c0.2-0.8,0.5-1.6,0.9-2.5h-1.3c-2.3,0-4-0.5-5.3-1.4c-1.3-1-2.1-2.2-2.5-3.7h-0.2c-0.7,1.2-1.5,2.1-2.4,2.8
		c-0.9,0.7-1.8,1.2-2.8,1.6c-1,0.3-2.1,0.6-3.2,0.7c-1.1,0.1-2.2,0.1-3.4,0.1l1.9-5.7c1.2,0,2.3-0.1,3.3-0.2c1-0.2,1.9-0.5,2.8-0.9
		c0.9-0.5,1.8-1.1,2.7-2c0.9-0.9,1.9-2,3-3.4l0.6,0.2c0.6,4.3,2.9,6.4,7.1,6.4c0.7,0,1.4,0,2.2-0.1c1.7-2.9,3.6-5.4,5.6-7.8
		c2-2.3,4.1-4.4,6.2-6.2c1.8-1.5,3.6-2.7,5.4-3.5c1.7-0.8,3.1-1.3,4.2-1.3c1.1,0,2.2,0.2,3.2,0.6c1,0.4,2,0.9,2.7,1.6
		c0.8,0.6,1.4,1.3,1.9,1.9c0.5,0.7,0.7,1.3,0.7,1.8c0,1.3-0.1,2.5-0.4,3.5c-0.3,1.1-0.6,2-1,2.9c-0.4,0.9-0.9,1.6-1.4,2.3
		s-1,1.4-1.6,2c-0.5,0.5-1.3,1.1-2.4,1.7c-1.1,0.6-2.2,1.1-3.4,1.6l0.1,0.2c2.4-0.2,4.7-0.5,6.7-0.8c2-0.3,3.9-0.4,5.5-0.4h3.6
		c0.8,0,1.6,0.2,2.3,0.6c0.7,0.4,1,0.9,1,1.5V649.7z M123.6,634.1c-0.9,0-2,0.3-3.3,0.8c-1.3,0.6-2.8,1.4-4.3,2.4
		c-1.6,1-3.1,2.3-4.8,3.9c-1.6,1.6-3.2,3.3-4.7,5.3c1.9-0.1,3.6-0.3,5.1-0.5c1.5-0.2,2.9-0.4,4.2-0.7s2.4-0.5,3.5-0.9
		c1.1-0.3,2.1-0.7,3.2-1.1c2.4-0.9,4.3-1.8,5.6-2.7s2.1-1.6,2.4-2.1c-0.4-0.5-0.8-1.1-1.4-1.6c-0.5-0.5-1.1-1-1.7-1.5
		c-0.6-0.4-1.3-0.8-2-1.1C124.9,634.2,124.3,634.1,123.6,634.1z"/>
	<path d="M165.4,641.7c0,0.7-0.1,1.4-0.3,2.1c-0.2,0.7-0.6,1.4-1.1,2.1c-0.5,0.7-1,1.3-1.6,1.7c-0.5,0.4-1,0.6-1.5,0.6
		c-0.9,0-2.2-0.3-3.9-1c-1.7-0.7-3.6-1.8-5.9-3.5c-0.7,1.1-1.3,2.1-2,3c-0.6,0.9-1.1,1.6-1.4,2c-0.7,0.8-1.5,1.5-2.3,2
		c-0.8,0.5-1.6,0.8-2.4,1.1c-0.8,0.2-1.7,0.4-2.6,0.4c-0.9,0.1-1.8,0.1-2.7,0.1l1.9-5.7c1.2,0,2.3-0.1,3.2-0.2s1.9-0.4,2.7-0.8
		c0.9-0.4,1.7-1.1,2.5-1.9c0.8-0.8,1.6-2,2.5-3.5l3.8-6.5c0.7-1.2,1.4-2,2.3-2.5c0.8-0.5,1.7-0.8,2.6-0.8c1.8,0,3.4,1.6,4.6,4.7
		C164.9,637.6,165.4,639.8,165.4,641.7z M160.4,641.2c0-0.8-0.1-1.5-0.4-2.2c-0.3-0.7-0.6-1.2-1-1.7c-0.4-0.5-0.8-0.8-1.3-1.1
		c-0.5-0.3-0.9-0.4-1.2-0.4c-0.4,0-0.9,0.2-1.2,0.7c-0.4,0.5-0.7,0.9-0.9,1.3c0.1,0.3,0.3,0.6,0.6,0.9c0.3,0.3,0.8,0.6,1.3,0.9
		c0.5,0.3,1.2,0.6,1.9,0.9C158.8,640.8,159.6,641,160.4,641.2z"/>
	<path d="M232.2,649.9c0,0.9-0.5,1.6-1.5,1.9c-1,0.4-2.2,0.6-3.6,0.6c-1.5,0-2.8-0.2-3.9-0.5c-1-0.3-1.9-0.9-2.7-1.7
		c-0.7-0.8-1.3-1.8-1.9-3.1c-0.5-1.3-1-2.9-1.6-4.8h-0.2c-1.6,3.4-3.6,5.7-5.8,7c-2.2,1.3-5.4,2-9.6,2c-4.7,0-7.1-1.4-7.1-4.3
		c0-1,0.7-3.1,2-6.2l1,0.1c0.1,2.9,2.8,4.3,8.1,4.3c7.1,0,10.7-2.5,10.7-7.6c0-0.8-0.1-1.9-0.3-3.3c-0.2-1.3-0.5-3-1-4.8
		c-0.8-3.8-1.3-6.4-1.3-7.9c0-1.4,0.8-3.3,2.4-5.6h0.2l3.5,20.9c0.3,2,0.7,3.6,1.2,4.9c0.4,1.3,1,2.3,1.7,3c0.7,0.7,1.5,1.2,2.6,1.5
		c1,0.3,2.3,0.4,3.8,0.4c0.8,0,1.5,0.2,2.2,0.5c0.7,0.3,1,0.8,1,1.5V649.9z"/>
	<path d="M240.9,639.8c0,2.7-0.4,4.9-1.1,6.5c-0.7,1.7-1.7,2.9-2.9,3.8c-1.2,0.9-2.7,1.5-4.4,1.8c-1.7,0.3-3.5,0.4-5.5,0.4l1.9-5.7
		c1.3,0,2.7-0.1,4.1-0.2s2.5-0.4,3.4-0.8c1.6-0.8,2.4-1.6,2.4-2.6c0-0.5-0.2-1-0.5-1.5l-2-3.3c-0.4-0.7-0.7-1.4-0.7-2
		c0-0.7,0.2-1.3,0.6-1.8l2.4-3.8h0.2C240.2,633.8,240.9,636.8,240.9,639.8z M243.7,659.6l-3.1,5l-5-3.2l-2.8,4.4l-4.9-3l2.9-5.1
		l5.2,3.1l2.6-4.3L243.7,659.6z"/>
	<path d="M287.3,649.9c0,0.9-0.5,1.6-1.5,1.9s-2.2,0.6-3.6,0.6c-1.5,0-2.8-0.2-3.9-0.5c-1-0.3-1.9-0.9-2.7-1.7
		c-0.7-0.8-1.3-1.8-1.9-3.1c-0.5-1.3-1-2.9-1.6-4.8H272c-1.6,3.4-3.6,5.7-5.8,7c-2.2,1.3-5.4,2-9.6,2c-4.7,0-7.1-1.4-7.1-4.3
		c0-1,0.7-3.1,2-6.2l1,0.1c0.1,2.9,2.8,4.3,8.1,4.3c7.1,0,10.7-2.5,10.7-7.6c0-0.8-0.1-1.9-0.3-3.3c-0.2-1.3-0.5-3-1-4.8
		c-0.8-3.8-1.3-6.4-1.3-7.9c0-1.4,0.8-3.3,2.4-5.6h0.2l3.5,20.9c0.3,2,0.7,3.6,1.2,4.9c0.4,1.3,1,2.3,1.7,3c0.7,0.7,1.5,1.2,2.6,1.5
		c1,0.3,2.3,0.4,3.8,0.4c0.8,0,1.5,0.2,2.2,0.5c0.7,0.3,1,0.8,1,1.5V649.9z"/>
	<path d="M327.3,638.1l-1.6,5.1h-2c-0.6,0-1.3,0-2.2-0.1c-0.8,0-1.7-0.1-2.7-0.2c-1-0.1-1.9-0.1-2.6-0.2s-1.4-0.1-1.9-0.1
		c-0.9,0-1.9,0.1-2.9,0.2c-1,0.1-2,0.3-3,0.5c-1,0.2-2,0.5-2.9,0.9s-1.8,0.7-2.6,1.2l-8.2,4.4c-0.9,0.5-2,1-3,1.3
		c-1.1,0.3-2.2,0.6-3.3,0.8c-1.1,0.2-2.2,0.3-3.2,0.4c-1.1,0.1-2.1,0.1-3,0.1l1.9-5.7c0.9,0,1.8,0,2.8-0.1c1,0,2-0.1,3-0.3
		c1.1-0.2,2.2-0.4,3.4-0.7c1.2-0.3,2.5-0.7,3.9-1.3c5.2-1.9,8.2-3,9.1-3.2c-0.4-0.1-1.2-0.4-2.2-0.8c-1-0.4-2.4-1-4.1-1.7
		c-2.8-1.2-5.1-1.8-6.9-1.8c-1.4,0-3.3,0.4-5.8,1.1L287,638c1.5-5,4.4-7.5,8.6-7.5c1.9,0,5.4,1.3,10.4,3.9
		c4.9,2.5,10.8,3.8,17.4,3.8H327.3z"/>
	<path d="M424.5,649.8c0,0.4-0.2,0.8-0.5,1.1c-0.3,0.3-0.7,0.6-1.2,0.8c-0.5,0.2-1,0.4-1.7,0.5c-0.6,0.1-1.2,0.2-1.8,0.2
		c-3.4,0-5.9-0.9-7.4-2.6c-1.5-1.7-2.5-4.3-2.8-7.7H409c-1.8,4.7-3.8,7.9-6,9.5c-2.5,2-6.5,3.7-11.8,5c-5.5,1.4-10.7,2.1-15.7,2.1
		c-12.4,0-18.7-3.7-18.7-11.2c0-2.8,0.8-6.4,2.3-10.9l1.1,0.2c-0.6,1.9-0.9,3.7-0.9,5.3c0,3,1.4,5.4,4.3,7.2
		c2.9,1.8,6.8,2.6,11.7,2.6c8,0,16-1.3,24.2-3.8c3.1-0.9,5.3-2.3,6.6-4.1c1.3-1.8,2-4.3,2-7.4c0-1.5-0.1-4.4-0.4-8.7
		c-0.3-4.2-0.8-10.1-1.4-17.6c0-0.2,0-0.4,0-0.7c0-0.3-0.1-0.6-0.1-0.9s-0.1-0.6-0.1-0.9s0-0.5,0-0.7c0-0.2,0.1-0.4,0.2-0.8
		c0.1-0.4,0.3-0.9,0.4-1.3c0.2-0.5,0.4-1,0.5-1.5c0.2-0.5,0.4-0.9,0.5-1.2h0.2c0.3,0.9,0.6,1.8,0.8,2.7c0.2,0.9,0.3,1.9,0.3,2.9
		c0.1,1.4,0.3,4.3,0.6,8.6c0.3,4.3,0.8,10.1,1.4,17.5c0.2,2.3,0.4,4.3,0.8,5.9c0.3,1.6,0.8,2.9,1.6,3.9s1.7,1.7,2.9,2.2
		c1.2,0.5,2.9,0.7,4.9,0.7c0.4,0,0.8,0,1.2,0.1c0.4,0.1,0.8,0.2,1.1,0.4c0.3,0.2,0.6,0.4,0.8,0.6c0.2,0.2,0.3,0.5,0.3,0.8V649.8z
		 M388.2,626.5c0,1.8-0.8,3.6-2.4,5.3c-1.8,2-3.9,3-6.3,3c-1.7,0-3.8-0.8-6.2-2.3v-0.2c6.6-0.6,9.9-1.6,9.9-2.9c0-0.7-1-1-3.1-1.2
		c-2.3-0.2-3.5-1-3.5-2.7c0-1.5,0.8-3.6,2.4-6.2c1.8-2.9,3.9-5,6.1-6.2l0.7,4.6c-3.3,1.5-4.9,2.6-4.9,3.5c0,0.4,0.2,0.8,0.7,1
		c0.5,0.2,1.2,0.4,2.2,0.5c1.5,0.2,2.6,0.6,3.3,1.3C387.8,624.8,388.2,625.6,388.2,626.5z"/>
	<path d="M471.2,650.1c0,0.4-0.2,0.8-0.6,1.1c-0.4,0.3-0.9,0.5-1.5,0.7c-0.6,0.2-1.2,0.3-1.9,0.4s-1.2,0.1-1.7,0.1
		c-1.4,0-2.6-0.1-3.4-0.4s-1.7-0.7-2.5-1.3c-0.5-0.4-1.2-0.9-2.1-1.7s-2.1-1.8-3.6-3.1l-5.1-4.7c-1.1-1-2.2-1.9-3.3-2.7
		s-2.1-1.4-3.1-2c0.2,0.8,0.3,1.6,0.3,2.7c0,2-0.3,3.7-0.9,5.1s-1.4,2.6-2.4,3.6c-1,1-2.3,1.8-3.7,2.3c-1.4,0.6-3,1.1-4.7,1.4
		c-1.7,0.3-3.6,0.5-5.5,0.6s-4,0.2-6,0.2l1.9-5.7c1.3,0,2.7,0,4.1,0c1.4,0,2.8-0.1,4.1-0.2c1.3-0.1,2.6-0.3,3.9-0.5
		c1.2-0.2,2.4-0.6,3.4-1c3.1-1.2,4.6-2.7,4.6-4.6c0-1.1-0.4-2.2-1.1-3.3s-1.9-2.4-3.5-3.7c-3-2.5-6.4-4.2-10-5.3
		c-2.6-3.6-3.9-6.3-3.9-8.3c0-1.8,0.7-3.6,2.1-5.3c0.7-0.8,1.7-1.8,2.9-2.8c1.3-1.1,2.9-2.3,4.8-3.6c3.6-2.5,7.9-5.1,12.8-7.8
		s10.6-5.5,17.2-8.4l-1.7,5.9c-6,2.9-11.3,5.5-15.8,7.9c-4.5,2.4-8.5,4.7-11.8,6.7c-5.8,3.6-8.7,6-8.7,7.2c0,1,1.5,2.1,4.6,3.2
		c5.8,2.3,11.3,5.4,16.6,9.4c0.6,0.4,1.8,1.4,3.7,3s4.3,3.8,7.5,6.5c0.9,0.8,1.8,1.6,2.7,2.2c0.8,0.6,1.7,1.1,2.5,1.6
		s1.7,0.7,2.6,0.9c0.9,0.2,1.9,0.3,2.9,0.3c1.1,0,2,0.2,2.7,0.6c0.7,0.4,1.1,1,1.1,1.7V650.1z"/>
	<path d="M507.8,638.3c0,3.3-0.6,5.9-1.9,7.9c-1.3,2-2.9,3.1-4.8,3.1c-2,0-4.2-1.3-6.5-3.9h-0.1c-2.5,4.7-6,7-10.4,7
		c-0.9,0-1.7-0.1-2.4-0.4c-0.7-0.2-1.3-0.6-1.8-1c-0.3-0.3-0.7-0.8-1.1-1.4s-0.8-1.4-1.2-2.4h-0.1c-0.8,1.1-1.6,1.9-2.4,2.6
		c-0.8,0.7-1.7,1.2-2.7,1.6c-1,0.4-2,0.7-3.1,0.8c-1.1,0.2-2.3,0.2-3.6,0.2l1.9-5.7c1.2,0,2.3-0.1,3.4-0.3c1-0.2,2-0.6,3-1.1
		c0.9-0.5,1.9-1.2,2.7-2s1.8-1.9,2.7-3.1l0.6,0.2c0.2,1.2,0.3,2.2,0.5,3.1c0.2,0.8,0.4,1.4,0.6,1.8c0.6,1,1.6,1.6,3,1.6
		c6.3,0,10.3-3.3,12-9.9h0.7c0.5,3.9,3,5.9,7.4,5.9c1.2,0,1.7-0.3,1.7-0.9c0-0.4-0.8-1.2-2.3-2.5l1.7-5.9
		C507,634.4,507.8,636,507.8,638.3z"/>
</g>
</svg>
