<svg id="Layer_1" data-name="Layer 1" xmlns="http://www.w3.org/2000/svg" viewBox="0 0 599 600"><defs><style>.cls-1{fill:none;}.cls-2{fill:#fff;}</style></defs><path class="cls-1" d="M630.19,600H-31.19V0H630.19ZM365,98.49c0,19.48-.24,38.15.13,56.8.13,6.66-2,8.92-8.72,8.9q-133.56-.25-267.13,0c-7,0-8.57-2.7-8.48-9.11.29-23,.11-46,.11-69,0-10.06.31-10.43,10.28-10.37,31.76.18,63.52.61,95.27.6,34.25,0,68.49-.53,102.73-.58,61.86-.11,123.73,0,185.59-.14,6.37,0,8.45,2.12,8.43,8.44q-.22,99,0,197.94c0,6.3-2.52,8-8.24,7.74-8.05-.32-16.13-.08-24.39-.08v27.93c17.22,0,34.23-.33,51.21.15,7.2.21,9.47-1.72,9.45-9.26-.27-82.85-.17-165.71-.17-248.57,0-11,0-11-10.68-11q-213.93,0-427.87.09c-5.9,0-11.79,1.32-18,2.06v7.9c0,40.66.18,81.32-.16,122-.06,7.35,1.93,9.43,9.34,9.42q194-.24,388.06,0h8.52V98.65H434v67.78c0,4-.7,7.86-5.78,6-1.64-.59-2.93-4.45-3-6.84-.23-19.69-.13-39.38-.13-59.07v-8H399.3c-.14,2.59-.36,4.83-.37,7.07,0,20.2.13,40.41-.18,60.6,0,2.26-2.57,4.48-3.95,6.72-1.3-2.31-3.59-4.56-3.73-6.93-.46-8.16-.16-16.36-.16-24.54v-43ZM513,380.88H114.9c-8.93,0-17.87-.3-26.79.11-5.87.28-7.47-2-7.36-7.59.28-15.09.48-30.2-.07-45.27-.27-7.65,1.91-10.1,9.82-10.08q143.16.39,286.32.17h6.93V232.13H222.88V258.3h7.94c41.08,0,82.17.13,123.25-.13,6.64,0,9.35,1.8,8.67,8.66-.51,5.07-.1,10.23-.1,15.34,0,10.35,0,10.37-10.58,10.34q-145.81-.4-291.63-1c-6.73,0-8.62,1.76-8.55,8.57.36,34,.16,68,.18,102,0,2.42.2,4.84.33,7.6H472c1.54,0,3.08.12,4.6,0,4.74-.47,6.21,1.85,6.2,6.33q-.1,54.11,0,108.2c0,5.12-2.25,6.46-7.25,5.92a104.74,104.74,0,0,0-19.07-.26c-1.94.15-5.14,2.8-5.26,4.48-.57,7.79-.25,15.64-.25,23.45h62ZM51.63,551.59H368.12a12.11,12.11,0,0,0,.68-2.58c.36-25.53.65-51.07,1.05-76.6.07-5-3.05-5-6.64-5-13.26.07-26.52,0-39.79,0H271.5v48.77c0,11.11,0,11.15-10.91,11.15H57.8c-2,0-3.91.22-6.18.36Z"/><path d="M365,98.49h25.9v43c0,8.18-.3,16.38.16,24.54.14,2.37,2.43,4.62,3.73,6.93,1.38-2.24,3.92-4.46,3.95-6.72.31-20.19.16-40.4.18-60.6,0-2.24.23-4.48.37-7.07h25.92v8c0,19.69-.1,39.38.13,59.07,0,2.39,1.32,6.25,3,6.84,5.08,1.83,5.79-2,5.78-6q-.08-29.53,0-59.08V98.7h26.24v91.72h-8.52q-194-.1-388.06,0c-7.41,0-9.4-2.07-9.34-9.42.34-40.66.16-81.32.16-122V51c6.25-.74,12.14-2,18-2.06q213.93-.16,427.87-.09c10.68,0,10.68,0,10.68,11,0,82.86-.1,165.72.17,248.57,0,7.54-2.25,9.47-9.45,9.26-17-.48-34-.15-51.21-.15V289.6c8.26,0,16.34-.24,24.39.08,5.72.23,8.26-1.44,8.24-7.74q-.26-99,0-197.94c0-6.32-2.06-8.46-8.43-8.44-61.86.18-123.73,0-185.59.14-34.24,0-68.48.57-102.73.58-31.75,0-63.51-.42-95.27-.6C81.27,75.62,81,76,81,86.05c0,23,.18,46-.11,69-.09,6.41,1.47,9.13,8.48,9.11q133.56-.28,267.13,0c6.76,0,8.85-2.24,8.72-8.9C364.78,136.64,365,118,365,98.49Z"/><path d="M513,380.88v177H451c0-7.81-.32-15.66.25-23.45.12-1.68,3.32-4.33,5.26-4.48a104.74,104.74,0,0,1,19.07.26c5,.54,7.26-.8,7.25-5.92q-.07-54.1,0-108.2c0-4.48-1.46-6.8-6.2-6.33-1.52.15-3.06,0-4.6,0H52.39c-.13-2.76-.33-5.18-.33-7.6,0-34,.18-68-.18-102-.07-6.81,1.82-8.6,8.55-8.57q145.81.74,291.63,1c10.56,0,10.56,0,10.58-10.34,0-5.11-.41-10.27.1-15.34.68-6.86-2-8.7-8.67-8.66-41.08.26-82.17.13-123.25.13h-7.94V232.13H383.75v86.09h-6.93q-143.16,0-286.32-.17c-7.91,0-10.09,2.43-9.82,10.08.55,15.07.35,30.18.07,45.27-.11,5.55,1.49,7.87,7.36,7.59,8.92-.41,17.86-.11,26.79-.11Z"/><path d="M51.63,551.59V527.74c2.27-.14,4.22-.36,6.18-.36H260.6c10.93,0,10.92,0,10.91-11.15V467.46h91.71c3.59,0,6.71,0,6.64,5-.4,25.53-.69,51.07-1.05,76.6a12.11,12.11,0,0,1-.68,2.58Zm268.43-30.4h4.57c26.42-.64,21.67,5.1,22.21-23.43.1-5.11-2.11-7.46-7.31-7.36-8.13.17-16.28-.1-24.41.1-22.34.54-21.42-5.26-21.44,22.62,0,5.73,2,8.49,8.08,8.15S314,521.19,320.06,521.19Z"/><path class="cls-2" d="M320.06,521.19c-6.1,0-12.22-.27-18.3.07s-8.09-2.42-8.08-8.15c0-27.88-.9-22.08,21.44-22.62,8.13-.2,16.28.07,24.41-.1,5.2-.1,7.41,2.25,7.31,7.36-.54,28.53,4.21,22.79-22.21,23.43C323.11,521.22,321.58,521.19,320.06,521.19Z"/></svg>